<svg width="180" height="90" viewBox="0 0 180 90" fill="none" xmlns="http://www.w3.org/2000/svg">
<g clip-path="url(#clip0_1680_3136)">
<path d="M78.4102 32.3447H84.6078C86.242 32.3447 87.387 32.5756 88.0484 33.0391C88.706 33.5062 89.0413 34.2921 89.0413 35.4115V36.2561C89.0413 36.9999 88.8581 37.5733 88.4935 37.9782C88.1326 38.3739 87.5757 38.6194 86.8301 38.711C87.6068 38.8648 88.2096 39.1745 88.6419 39.638C89.0743 40.096 89.285 40.6785 89.285 41.3747L89.2886 42.1533C89.285 43.4064 88.9497 44.2821 88.2645 44.7804C87.583 45.2787 86.3336 45.526 84.5217 45.526H78.4102V32.3447ZM81.9258 35.2686V37.6081L84.4265 37.6044C84.8002 37.6081 85.0732 37.5348 85.2344 37.3956C85.3993 37.2527 85.478 37.0237 85.4762 36.6994V36.1645C85.4762 35.8512 85.3993 35.6204 85.2344 35.4848C85.0732 35.3327 84.8002 35.2686 84.4265 35.2686H81.9258ZM81.9258 40.1326V42.593H84.5565C84.9504 42.593 85.2399 42.5124 85.4194 42.364C85.5935 42.2138 85.6814 41.9701 85.6814 41.6312V41.0834C85.6814 40.7463 85.5935 40.5027 85.4194 40.3524C85.2381 40.2059 84.9504 40.1326 84.5565 40.1326H81.9258Z" fill="#0071BB"/>
<path d="M91.5586 45.5279V32.3447H96.8678C98.9049 32.3447 100.299 32.6104 101.052 33.1417C101.807 33.6821 102.184 34.6164 102.184 35.9593V37.0218C102.184 37.9159 101.974 38.6047 101.541 39.1103C101.105 39.616 100.469 39.9256 99.6268 40.0337C100.515 40.1766 101.167 40.4733 101.574 40.9167C101.981 41.36 102.184 41.9921 102.184 42.8165V45.526H98.5734V43.1591C98.5734 42.5911 98.4634 42.2064 98.2473 41.9994C98.0311 41.7906 97.6354 41.6861 97.0491 41.6861H95.0907V45.526H91.5586V45.5279ZM95.0925 38.7128H97.0693C97.6574 38.7128 98.0549 38.6065 98.2729 38.4013C98.4873 38.1962 98.588 37.8133 98.588 37.26V36.7544C98.588 36.1956 98.4818 35.8054 98.2656 35.5984C98.0549 35.3932 97.6537 35.2851 97.0674 35.2851H95.0907V38.7128H95.0925Z" fill="#0071BB"/>
<path d="M104.16 37.568C104.16 35.5674 104.532 34.1714 105.283 33.3745C106.032 32.5849 107.337 32.1855 109.211 32.1855H110.937C112.805 32.1855 114.117 32.5849 114.87 33.3818C115.618 34.1769 115.999 35.5748 115.999 37.5698L116 40.3032C116 42.3037 115.618 43.6979 114.87 44.4966C114.117 45.2899 112.805 45.6893 110.937 45.6929H109.211C107.337 45.6929 106.032 45.2936 105.283 44.5003C104.532 43.7107 104.16 42.3092 104.16 40.305V37.568ZM107.773 37.8648V40.0357C107.773 41.1587 107.896 41.8677 108.154 42.1553C108.405 42.4411 108.936 42.5932 109.744 42.5932H110.398C111.204 42.5932 111.737 42.4411 112.001 42.1462C112.254 41.8494 112.39 41.1477 112.39 40.0357V37.8648C112.39 36.7399 112.256 36.0291 112.001 35.7268C111.739 35.4337 111.204 35.2835 110.398 35.2835H109.744C108.945 35.2835 108.414 35.43 108.159 35.7232C107.897 36.0218 107.773 36.7326 107.773 37.8648Z" fill="#0071BB"/>
<path d="M120.858 45.5279L120.862 35.2851H117.469V32.3447H127.812L126.218 35.2851H124.44V45.5279H120.858Z" fill="#8A908F"/>
<path d="M129.691 45.5279V32.3447H133.227V37.2747L137.831 37.2765V32.3447H141.369V45.5279H137.831V40.3744H133.227V45.5279H129.691Z" fill="#8A908F"/>
<path d="M144.055 45.5279V32.3447H153.964L151.573 35.2851H147.59V37.5678H151.386V38.9051V40.1124H147.59V42.593H151.709L154.109 45.5279H144.055Z" fill="#8A908F"/>
<path d="M156.523 45.5279V32.3447H161.836C163.866 32.3447 165.264 32.6104 166.017 33.1417C166.768 33.6821 167.151 34.6164 167.151 35.9593V37.0218C167.151 37.9159 166.933 38.6065 166.499 39.1103C166.07 39.616 165.432 39.9256 164.59 40.0337C165.482 40.1766 166.13 40.4733 166.535 40.9167C166.946 41.36 167.149 41.9921 167.149 42.8147V45.526H163.536V43.1591C163.536 42.5911 163.428 42.2064 163.208 41.9994C162.996 41.7906 162.597 41.6861 162.01 41.6861H160.054V45.526H156.523V45.5279ZM160.054 38.7128H162.029C162.622 38.7128 163.022 38.6065 163.232 38.4013C163.448 38.1962 163.553 37.8133 163.553 37.26V36.7562C163.553 36.1956 163.443 35.8054 163.227 35.5965C163.011 35.3914 162.613 35.2869 162.027 35.2869H160.052V38.7128H160.054Z" fill="#0071BB"/>
<path d="M168.951 41.4463H172.344V41.5801C172.344 42.0601 172.476 42.3953 172.732 42.5822C172.985 42.7709 173.438 42.8698 174.077 42.8735L174.962 42.8717C175.497 42.8717 175.871 42.791 176.096 42.6445C176.303 42.5034 176.415 42.2506 176.415 41.8805V41.3053C176.415 40.992 176.329 40.7722 176.158 40.6293C175.986 40.4974 175.603 40.3929 175 40.3215L172.13 40.0119C171.058 39.902 170.283 39.563 169.783 39.0098C169.294 38.4547 169.048 37.6358 169.048 36.5531V35.7378C169.048 35.1168 169.136 34.5745 169.341 34.0927C169.532 33.6108 169.812 33.217 170.188 32.911C170.505 32.6454 170.893 32.4603 171.347 32.3504C171.803 32.2387 172.481 32.1855 173.386 32.1855H175.5C176.82 32.1855 177.827 32.4494 178.523 32.9825C179.219 33.5137 179.564 34.2814 179.564 35.2853L179.566 36.1903H176.178V36.0456C176.178 35.6554 176.087 35.3787 175.898 35.2248C175.709 35.071 175.374 34.9922 174.89 34.9922H174.077C173.511 34.9922 173.126 35.0655 172.921 35.19C172.712 35.3274 172.608 35.5528 172.608 35.8844V36.4303C172.608 36.9176 173.079 37.2071 174.029 37.317L176.645 37.6083C177.769 37.7402 178.608 38.0663 179.165 38.5921C179.72 39.1252 180.002 39.869 180.002 40.8216V42.0876C180.002 43.1758 179.657 44.0515 178.979 44.711C178.3 45.3614 177.387 45.6911 176.242 45.6893L173.364 45.6911C171.824 45.6911 170.702 45.4273 169.995 44.8887C169.305 44.3611 168.949 43.5147 168.949 42.3569V41.4463H168.951Z" fill="#0071BB"/>
<path d="M82.8366 49.5254C83.4393 49.8497 83.8076 50.4176 83.9431 51.2274H83.1297C83.0308 50.7749 82.8256 50.4433 82.5142 50.2381C82.2027 50.0311 81.8107 49.9267 81.338 49.9267C80.7774 49.9267 80.3048 50.1428 79.92 50.5734C79.5372 51.0039 79.3448 51.6451 79.3448 52.4988C79.3448 53.2371 79.5024 53.838 79.8193 54.2997C80.1362 54.7632 80.651 54.994 81.3673 54.994C81.9151 54.994 82.3676 54.8309 82.7267 54.5067C83.0858 54.1824 83.269 53.6548 83.2781 52.9293H81.3802V52.2332H84.0421V55.5528H83.5145L83.3166 54.754C83.0381 55.0673 82.7926 55.2834 82.5783 55.4044C82.2174 55.6132 81.7594 55.7176 81.2043 55.7176C80.4861 55.7176 79.8688 55.4795 79.3503 55.0032C78.786 54.4059 78.5039 53.587 78.5039 52.5446C78.5039 51.5058 78.7787 50.6796 79.3301 50.0659C79.8523 49.4796 80.5301 49.1865 81.36 49.1865C81.9279 49.1884 82.4207 49.3019 82.8366 49.5254Z" fill="#8E9093"/>
<path d="M86.5878 51.0295H87.2931V51.8117C87.3517 51.6597 87.4928 51.4746 87.7181 51.2566C87.9435 51.0386 88.2036 50.9287 88.4986 50.9287C88.5114 50.9287 88.5352 50.9305 88.5682 50.9324C88.6011 50.936 88.6579 50.9397 88.7367 50.9489V51.7513C88.6927 51.744 88.6524 51.7366 88.614 51.7348C88.5773 51.7311 88.537 51.7311 88.4931 51.7311C88.1193 51.7311 87.8317 51.8539 87.6302 52.1012C87.4287 52.3467 87.3297 52.6306 87.3297 52.9531V55.5545H86.5859V51.0295H86.5878Z" fill="#8E9093"/>
<path d="M93.9522 51.481C94.346 51.8694 94.5421 52.441 94.5421 53.1958C94.5421 53.9249 94.368 54.5276 94.0218 55.004C93.6755 55.4803 93.1369 55.7184 92.4078 55.7184C91.7995 55.7184 91.3159 55.5078 90.9587 55.0864C90.6014 54.665 90.4219 54.1008 90.4219 53.39C90.4219 52.6297 90.6106 52.0251 90.988 51.5744C91.3654 51.1238 91.871 50.8984 92.5067 50.8984C93.0765 50.8984 93.5583 51.0926 93.9522 51.481ZM93.4923 54.491C93.6755 54.11 93.7671 53.6849 93.7671 53.2178C93.7671 52.7946 93.7012 52.452 93.5693 52.1882C93.3604 51.7723 92.9995 51.5635 92.4884 51.5635C92.034 51.5635 91.7043 51.7412 91.4973 52.0947C91.2902 52.4483 91.1877 52.877 91.1877 53.379C91.1877 53.8608 91.2902 54.262 91.4973 54.5826C91.7043 54.9032 92.0304 55.0644 92.4792 55.0644C92.9702 55.0626 93.3091 54.8721 93.4923 54.491Z" fill="#8E9093"/>
<path d="M97.5144 51.0292V54.0318C97.5144 54.2627 97.5492 54.4514 97.6225 54.5979C97.7544 54.8672 98.0017 55.0028 98.3608 55.0028C98.8774 55.0028 99.231 54.7665 99.4179 54.2938C99.5205 54.041 99.5699 53.6929 99.5699 53.2514V51.0292H100.314V55.5524H99.6121L99.6212 54.8856C99.5241 55.0578 99.4051 55.2025 99.2622 55.3197C98.9782 55.5561 98.6356 55.6751 98.2307 55.6751C97.6005 55.6751 97.1718 55.4608 96.9428 55.0285C96.8183 54.7976 96.7578 54.4898 96.7578 54.1033V51.0273H97.5144V51.0292Z" fill="#8E9093"/>
<path d="M102.758 51.0519H103.48V51.651C103.628 51.4458 103.791 51.2864 103.967 51.1747C104.218 51.0061 104.511 50.9219 104.85 50.9219C105.35 50.9219 105.775 51.1179 106.125 51.5118C106.475 51.9038 106.649 52.4663 106.649 53.1954C106.649 54.181 106.396 54.8845 105.894 55.3077C105.575 55.5752 105.204 55.7089 104.78 55.7089C104.447 55.7089 104.168 55.6338 103.943 55.4854C103.811 55.4011 103.665 55.2564 103.502 55.0512V57.3614H102.758V51.0519ZM105.546 54.5969C105.775 54.3001 105.891 53.8549 105.891 53.265C105.891 52.9041 105.839 52.5945 105.738 52.3362C105.546 51.8379 105.194 51.5887 104.681 51.5887C104.167 51.5887 103.815 51.8525 103.624 52.3783C103.522 52.6605 103.472 53.0177 103.472 53.4519C103.472 53.8018 103.524 54.0986 103.624 54.3441C103.817 54.8112 104.168 55.0457 104.681 55.0457C105.028 55.0439 105.315 54.8955 105.546 54.5969Z" fill="#8E9093"/>
<path d="M115.788 51.481C116.182 51.8694 116.378 52.441 116.378 53.1958C116.378 53.9249 116.204 54.5276 115.858 55.004C115.511 55.4803 114.973 55.7184 114.244 55.7184C113.635 55.7184 113.152 55.5078 112.795 55.0864C112.437 54.665 112.258 54.1008 112.258 53.39C112.258 52.6297 112.447 52.0251 112.824 51.5744C113.201 51.1238 113.707 50.8984 114.343 50.8984C114.912 50.8984 115.394 51.0926 115.788 51.481ZM115.328 54.491C115.511 54.11 115.603 53.6849 115.603 53.2178C115.603 52.7946 115.537 52.452 115.405 52.1882C115.196 51.7723 114.835 51.5635 114.324 51.5635C113.87 51.5635 113.54 51.7412 113.333 52.0947C113.126 52.4483 113.024 52.877 113.024 53.379C113.024 53.8608 113.126 54.262 113.333 54.5826C113.54 54.9032 113.866 55.0644 114.315 55.0644C114.808 55.0626 115.145 54.8721 115.328 54.491Z" fill="#8E9093"/>
<path d="M118.95 49.6482C119.125 49.3898 119.458 49.2598 119.953 49.2598C120 49.2598 120.048 49.2616 120.097 49.2634C120.147 49.2671 120.204 49.2708 120.266 49.2763V49.9688C120.189 49.9633 120.134 49.9596 120.099 49.9578C120.064 49.9559 120.033 49.9559 120.002 49.9559C119.777 49.9559 119.641 50.0164 119.597 50.1355C119.553 50.2545 119.531 50.5605 119.531 51.0496H120.266V51.6487H119.522V55.5509H118.787V51.6487H118.172V51.0496H118.787V50.3406C118.8 50.0255 118.855 49.7947 118.95 49.6482Z" fill="#8E9093"/>
<path d="M130.451 49.7999C130.874 50.2139 131.11 50.6848 131.156 51.2105H130.356C130.266 50.8112 130.084 50.4942 129.813 50.2597C129.542 50.0252 129.161 49.9098 128.672 49.9098C128.075 49.9098 127.593 50.1242 127.225 50.5547C126.856 50.9852 126.673 51.6429 126.673 52.5296C126.673 53.2569 126.838 53.845 127.171 54.2975C127.503 54.75 127.998 54.9753 128.655 54.9753C129.26 54.9753 129.722 54.7372 130.039 54.2608C130.207 54.0099 130.332 53.6801 130.414 53.2715H131.215C131.143 53.9256 130.907 54.4734 130.506 54.9149C130.024 55.4461 129.375 55.7136 128.556 55.7136C127.851 55.7136 127.261 55.4956 126.781 55.0596C126.151 54.4825 125.836 53.5922 125.836 52.3867C125.836 51.4707 126.072 50.7214 126.545 50.1352C127.056 49.4994 127.763 49.1807 128.663 49.1807C129.432 49.1788 130.028 49.3859 130.451 49.7999Z" fill="#8E9093"/>
<path d="M136.687 51.481C137.08 51.8694 137.276 52.441 137.276 53.1958C137.276 53.9249 137.102 54.5276 136.756 55.004C136.41 55.4803 135.871 55.7184 135.142 55.7184C134.534 55.7184 134.052 55.5078 133.693 55.0864C133.336 54.665 133.156 54.1008 133.156 53.39C133.156 52.6297 133.345 52.0251 133.722 51.5744C134.1 51.1238 134.605 50.8984 135.241 50.8984C135.811 50.8984 136.293 51.0926 136.687 51.481ZM136.227 54.491C136.41 54.11 136.501 53.6849 136.501 53.2178C136.501 52.7946 136.436 52.452 136.304 52.1882C136.095 51.7723 135.734 51.5635 135.223 51.5635C134.768 51.5635 134.439 51.7412 134.232 52.0947C134.025 52.4501 133.922 52.877 133.922 53.379C133.922 53.8608 134.025 54.262 134.232 54.5826C134.439 54.9032 134.765 55.0644 135.214 55.0644C135.705 55.0626 136.043 54.8721 136.227 54.491Z" fill="#8E9093"/>
<path d="M139.502 51.0283H140.236V51.6695C140.412 51.4478 140.572 51.2847 140.715 51.184C140.96 51.0118 141.237 50.9257 141.548 50.9257C141.9 50.9257 142.184 51.0136 142.398 51.1913C142.519 51.2921 142.629 51.4423 142.728 51.6383C142.893 51.3965 143.087 51.217 143.311 51.0997C143.534 50.9825 143.783 50.9238 144.062 50.9238C144.655 50.9238 145.06 51.1437 145.274 51.5834C145.39 51.8197 145.449 52.1384 145.449 52.5378V55.5496H144.677V52.4078C144.677 52.1073 144.604 51.9003 144.456 51.7867C144.309 51.6731 144.129 51.6182 143.917 51.6182C143.626 51.6182 143.375 51.7189 143.164 51.9186C142.953 52.1183 142.849 52.4517 142.849 52.9189V55.5496H142.094V52.5983C142.094 52.2923 142.059 52.067 141.986 51.9259C141.872 51.7153 141.664 51.609 141.354 51.609C141.074 51.609 140.817 51.7208 140.588 51.9424C140.359 52.1641 140.244 52.5671 140.244 53.1497V55.5496H139.5V51.0283H139.502Z" fill="#8E9093"/>
<path d="M147.828 51.0519H148.55V51.651C148.698 51.4458 148.861 51.2864 149.037 51.1747C149.288 51.0061 149.581 50.9219 149.92 50.9219C150.42 50.9219 150.845 51.1179 151.195 51.5118C151.545 51.9038 151.719 52.4663 151.719 53.1954C151.719 54.181 151.466 54.8845 150.965 55.3077C150.646 55.5752 150.274 55.7089 149.851 55.7089C149.517 55.7089 149.239 55.6338 149.013 55.4854C148.882 55.4011 148.733 55.2564 148.572 55.0512V57.3614H147.828V51.0519ZM150.616 54.5969C150.845 54.3001 150.961 53.8549 150.961 53.265C150.961 52.9041 150.91 52.5945 150.809 52.3362C150.616 51.8379 150.265 51.5887 149.752 51.5887C149.237 51.5887 148.885 51.8525 148.695 52.3783C148.592 52.6605 148.543 53.0177 148.543 53.4519C148.543 53.8018 148.594 54.0986 148.695 54.3441C148.887 54.8112 149.239 55.0457 149.752 55.0457C150.098 55.0439 150.387 54.8955 150.616 54.5969Z" fill="#8E9093"/>
<path d="M156.299 52.8113C156.469 52.7893 156.584 52.716 156.641 52.5914C156.674 52.5237 156.691 52.4266 156.691 52.3002C156.691 52.0418 156.601 51.8531 156.421 51.7359C156.242 51.6187 155.984 51.56 155.648 51.56C155.26 51.56 154.985 51.6663 154.822 51.8806C154.732 51.9997 154.672 52.1756 154.644 52.4082H153.952C153.965 51.8513 154.142 51.4629 154.481 51.2449C154.82 51.0269 155.216 50.917 155.663 50.917C156.183 50.917 156.605 51.0177 156.931 51.2211C157.253 51.4245 157.414 51.7396 157.414 52.1664V54.7734C157.414 54.8521 157.431 54.9163 157.462 54.9639C157.493 55.0115 157.561 55.0353 157.662 55.0353C157.695 55.0353 157.731 55.0335 157.773 55.028C157.816 55.0244 157.86 55.017 157.905 55.0097V55.5721C157.79 55.6069 157.702 55.6271 157.642 55.6362C157.581 55.6436 157.499 55.6491 157.394 55.6491C157.138 55.6491 156.953 55.5556 156.837 55.3706C156.777 55.2717 156.735 55.1324 156.709 54.9529C156.557 55.1563 156.341 55.3321 156.057 55.4805C155.773 55.6289 155.461 55.704 155.121 55.704C154.71 55.704 154.375 55.5758 154.117 55.3211C153.857 55.0665 153.727 54.7477 153.727 54.3648C153.727 53.9453 153.855 53.6192 154.109 53.3884C154.366 53.1575 154.701 53.0146 155.117 52.9615L156.299 52.8113ZM154.736 54.8686C154.894 54.995 155.079 55.0592 155.293 55.0592C155.555 55.0592 155.808 54.9969 156.051 54.8741C156.464 54.6689 156.671 54.3318 156.671 53.8647V53.2528C156.579 53.3114 156.462 53.3609 156.319 53.4012C156.176 53.4397 156.035 53.469 155.897 53.4855L155.449 53.5441C155.179 53.5807 154.976 53.6394 154.842 53.7181C154.613 53.85 154.5 54.0626 154.5 54.352C154.5 54.5682 154.578 54.7422 154.736 54.8686Z" fill="#8E9093"/>
<path d="M159.977 51.0295H160.682V51.6707C160.891 51.4069 161.112 51.2163 161.347 51.1009C161.581 50.9855 161.842 50.9287 162.127 50.9287C162.756 50.9287 163.179 51.1522 163.399 51.6011C163.52 51.8465 163.58 52.1965 163.58 52.6526V55.5545H162.825V52.7039C162.825 52.4273 162.785 52.2056 162.706 52.0371C162.574 51.7549 162.334 51.6157 161.988 51.6157C161.812 51.6157 161.668 51.634 161.556 51.6707C161.352 51.733 161.173 51.8557 161.019 52.0426C160.894 52.1928 160.814 52.3467 160.777 52.5042C160.741 52.6636 160.722 52.8908 160.722 53.1857V55.5545H159.978V51.0295H159.977Z" fill="#8E9093"/>
<path d="M166.02 49.3496H166.774V50.2107H166.02V49.3496ZM166.02 51.0515H166.774V55.5546H166.02V51.0515Z" fill="#8E9093"/>
<path d="M171.999 51.154C172.294 51.3043 172.517 51.5003 172.671 51.7385C172.819 51.9656 172.918 52.2331 172.968 52.5372C173.012 52.7461 173.034 53.0777 173.034 53.5338H169.793C169.808 53.9918 169.912 54.3601 170.112 54.6385C170.31 54.917 170.617 55.0544 171.031 55.0544C171.42 55.0544 171.729 54.9243 171.96 54.6623C172.092 54.5103 172.186 54.3344 172.241 54.1347H172.972C172.951 54.3014 172.889 54.4865 172.779 54.6898C172.671 54.895 172.548 55.0617 172.415 55.19C172.189 55.4153 171.909 55.5674 171.576 55.6461C171.396 55.6919 171.194 55.7139 170.969 55.7139C170.42 55.7139 169.952 55.5087 169.57 55.0984C169.187 54.688 168.996 54.1146 168.996 53.3781C168.996 52.6508 169.188 52.0609 169.573 51.6084C169.958 51.154 170.462 50.9287 171.085 50.9287C171.4 50.9287 171.704 51.0038 171.999 51.154ZM172.272 52.9311C172.241 52.6013 172.171 52.3375 172.061 52.1415C171.858 51.7751 171.517 51.5919 171.042 51.5919C170.702 51.5919 170.414 51.7183 170.183 51.9693C169.952 52.2221 169.83 52.5409 169.815 52.9311H172.272Z" fill="#8E9093"/>
<path d="M175.732 54.1336C175.754 54.3865 175.816 54.5806 175.917 54.7162C176.104 54.9617 176.428 55.0844 176.892 55.0844C177.167 55.0844 177.408 55.0222 177.619 54.9012C177.828 54.7785 177.932 54.5898 177.932 54.3333C177.932 54.1391 177.848 53.9907 177.68 53.89C177.573 53.8277 177.361 53.7562 177.044 53.6738L176.454 53.5217C176.077 53.4265 175.798 53.3184 175.62 53.2011C175.302 52.996 175.142 52.7102 175.142 52.3474C175.142 51.9187 175.292 51.5725 175.595 51.3087C175.895 51.0449 176.302 50.9111 176.811 50.9111C177.476 50.9111 177.956 51.1108 178.251 51.5102C178.434 51.763 178.524 52.036 178.519 52.3291H177.817C177.802 52.1569 177.744 52.0012 177.639 51.8601C177.469 51.6604 177.172 51.5597 176.753 51.5597C176.472 51.5597 176.26 51.6146 176.115 51.7245C175.97 51.8345 175.899 51.9792 175.899 52.1587C175.899 52.3566 175.994 52.5141 176.183 52.6314C176.293 52.7028 176.456 52.7633 176.67 52.8164L177.161 52.9392C177.694 53.0711 178.053 53.1993 178.235 53.3239C178.524 53.5181 178.669 53.824 178.669 54.2399C178.669 54.6429 178.519 54.991 178.222 55.2823C177.923 55.5754 177.469 55.722 176.857 55.722C176.199 55.722 175.734 55.5699 175.459 55.264C175.186 54.958 175.04 54.5806 175.02 54.13H175.732V54.1336Z" fill="#8E9093"/>
<path d="M20.6935 43.6386L36.3022 28.028L32.1637 23.8877L12.8433 43.2117C11.9585 44.0984 11.9585 45.5347 12.8433 46.4214L32.1637 65.7454L36.3077 61.6069L20.6953 45.9945C20.045 45.346 20.045 44.2908 20.6935 43.6386Z" fill="#8A908F"/>
<path d="M41.2239 23.1148C41.8742 22.4663 42.9276 22.4663 43.5817 23.1148L45.7746 25.3095L49.9131 21.171L44.0049 15.2646C43.1218 14.3779 41.68 14.3779 40.797 15.2646L36.3086 19.7494L40.4544 23.8879L41.2239 23.1148Z" fill="#8A908F"/>
<path d="M71.954 43.2123L58.1113 29.3641L57.5746 28.831L55.7847 27.043L51.6462 31.1815H51.6443L49.7244 33.1491L53.8757 37.3095L55.7993 35.3346L64.1038 43.6355C64.756 44.2877 64.756 45.3411 64.1038 45.9914L43.5817 66.5173C42.9276 67.1713 41.8742 67.1713 41.2239 66.5173L40.4508 65.746L36.3086 69.8827L40.797 74.3711C41.68 75.2578 43.1218 75.2578 44.0049 74.3711L71.954 46.422C72.837 45.5353 72.8388 44.099 71.954 43.2123Z" fill="#8A908F"/>
<path d="M44.9378 46.4729L49.7834 41.5045L45.6284 37.3477L36.9062 46.297L44.9378 46.4729Z" fill="#8A908F"/>
<path d="M31.3997 66.5169C30.7439 67.1709 29.6868 67.1709 29.0401 66.5169L8.51243 45.9947C7.86939 45.3444 7.86756 44.291 8.51243 43.6351L29.0401 23.1148C29.6886 22.4663 30.7439 22.4663 31.3997 23.1148L32.1655 23.8879L36.304 19.7494L31.8211 15.2646C30.9362 14.3779 29.4944 14.3779 28.6096 15.2646L0.662271 43.2119C-0.220757 44.0986 -0.220757 45.5349 0.662271 46.4216L28.6114 74.3707C29.4963 75.2574 30.9362 75.2574 31.8211 74.3671L36.304 69.8823L32.1655 65.7456L31.3997 66.5169Z" fill="#0071BB"/>
<path d="M51.9191 43.6394C52.5695 44.2916 52.5695 45.345 51.9191 45.9954L36.3086 61.6077L40.4471 65.7462L59.7693 46.4222C60.656 45.5355 60.656 44.0992 59.7693 43.2125L53.8721 37.3135L49.7867 41.5051L51.9191 43.6394Z" fill="#0071BB"/>
<path d="M49.7839 41.5043L53.8711 37.3127L49.7179 33.1504L45.6289 37.3475L49.7839 41.5043Z" fill="#8A908F"/>
<path d="M36.3065 28.0288L40.4523 23.8885L36.3065 19.75L32.168 23.8885L36.3065 28.0288Z" fill="#8A908F"/>
<path d="M36.312 61.6064L32.168 65.7468L36.3065 69.8816L40.4505 65.7468L36.312 61.6064Z" fill="#00ADEE"/>
<path d="M43.1758 26.6104L43.6246 27.0592C43.4964 26.9181 43.3407 26.7679 43.1758 26.6104Z" fill="#7E1338"/>
<path d="M48.0131 31.4321C47.7639 31.1573 47.5386 30.943 47.3242 30.7598L47.9966 31.4321H48.0131Z" fill="#7E1338"/>
<path d="M47.9949 31.4319L47.3226 30.7596C46.3608 29.9297 45.7947 29.9535 45.7947 29.9535C44.9886 29.8033 44.2484 30.3052 43.7703 30.7431C44.2063 30.2649 44.6973 29.5339 44.5544 28.7352C44.5544 28.7352 44.5874 28.1196 43.6201 27.0571L43.1712 26.6082L40.4507 23.8877L36.3049 28.028L39.4614 31.1828L24.7266 46.2987L32.7618 46.4727L43.6182 35.3377L45.6298 37.3475L49.7207 33.1522L47.9949 31.4319Z" fill="#0071BB"/>
</g>
<defs>
<clipPath id="clip0_1680_3136">
<rect width="180" height="90" fill="white"/>
</clipPath>
</defs>
</svg>
